<?xml version="1.0" encoding="UTF-8"?>
<svg version="1.1" viewBox="0 0 48 48" xmlns="http://www.w3.org/2000/svg" xmlns:cc="http://creativecommons.org/ns#" xmlns:dc="http://purl.org/dc/elements/1.1/" xmlns:rdf="http://www.w3.org/1999/02/22-rdf-syntax-ns#">
 <metadata>
  <rdf:RDF>
   <cc:Work rdf:about="">
    <dc:format>image/svg+xml</dc:format>
    <dc:type rdf:resource="http://purl.org/dc/dcmitype/StillImage"/>
    <dc:title/>
   </cc:Work>
  </rdf:RDF>
 </metadata>
 <linearGradient id="a" x2="0" y1="541.8" y2="499.78" gradientTransform="matrix(.6923 0 0 .69207 120.26 150.83)" gradientUnits="userSpaceOnUse">
  <stop stop-color="#3daee9" offset="0"/>
  <stop stop-color="#6cc1ef" offset="1"/>
 </linearGradient>
 <g transform="translate(-384.57 -483.8)">
  <g stroke-width=".6923">
   <path d="m389.57 489.8v11h38l-1e-5-8h-19l-3-3-16-.00018z" fill="#147eb8"/>
   <path d="m404.57 496.8-3 3h-13l1e-5 26 40-.00047v-29z" fill="url(#a)"/>
   <g fill-opacity=".23529" fill-rule="evenodd">
    <path d="m388.57 499.8v1h14l2-4-3 3z" fill="#fff"/>
    <path d="m389.56 498.8.0156 1.0001h11.992l3-3-4 2z"/>
   </g>
  </g>
  <path d="m388.57 524.8v.9998c-1e-5.00045 40 0 40 0v-.9998z" fill-opacity=".23529" stroke-width=".83037"/>
  <path d="m405.57 489.8 2 4h20v-1h-19z" fill="#fff" fill-opacity=".23529" fill-rule="evenodd" stroke-width=".6923"/>
  <path d="m407.07 505.8c-1.385 0-2.5 1.115-2.5 2.5s1.115 2.5 2.5 2.5 2.5-1.115 2.5-2.5-1.115-2.5-2.5-2.5zm0 1c.831 0 1.5.669 1.5 1.5s-.669 1.5-1.5 1.5-1.5-.669-1.5-1.5.669-1.5 1.5-1.5zm5.5 1c-1.108 0-2 .892-2 2s.892 2 2 2 2-.892 2-2-.892-2-2-2zm0 1c.554 0 1 .446 1 1s-.446 1-1 1-1-.446-1-1 .446-1 1-1zm-5.5 3c-2.493 0-4.5 2.007-4.5 4.5v1.5h9v-1.5c0-2.493-2.007-4.5-4.5-4.5zm0 1c1.939 0 3.5 1.561 3.5 3.5v.5h-7v-.5c0-1.939 1.561-3.5 3.5-3.5zm5.5 0c-.55473 0-1.0669.15951-1.5117.41992.24314.23688.46541.49507.65625.77735.26011-.12335.54745-.19727.85547-.19727 1.108 0 2 .892 2 2h-2.0996c.0651.32308.0996.65717.0996 1h3v-1c0-1.662-1.338-3-3-3z" fill="#1272a5"/>
 </g>
</svg>
